# xmcd
#
# Track frame offsets:
#	150
#	13545
#	28190
#	42652
#	56990
#	67927
#	81405
#	96052
#	105825
#	114425
#	130492
#	136615
#	150637
#	162757
#	176317
#	186785
#	201297
#	213652
#	228705
#	241962
#	255525
#	267980
#	281312
#	297855
#	313400
#	325972
#	335342
#
# Disc length: 4654
#
# Revision: 3
# Processed by: cddbd v1.5.1PL0 Copyright (c) Steve Scherf et al.
# Submitted via: CDex 1.40Release
# Normalized: r2:TDELIM( - )
#
DISCID=89122c1b
DTITLE=Joseph von Westphalen - Jazz macht Frauen Beine CD1
DYEAR=2002
DGENRE=Jazz
TTITLE0=Big Maybelle - I've Got A Feelin'
TTITLE1=Sammy Price/Lester Young - The Goon Drag
TTITLE2=Ray Charles - Losing Hand
TTITLE3=Ivie Anderson/Duke Ellington - It Don't Mean A Thing
TTITLE4=Paul Williams - Rye Boogie
TTITLE5=Paul Quinichette - You Belong To Me
TTITLE6=Tiny Grimes/Charlie Parker - Red Cross
TTITLE7=Christine Kittrell - You Ain't Nothing But Trouble
TTITLE8=Sidney Bechet - Blues Of Bechet
TTITLE9=Louis Armstrong - The Peanut Vendor
TTITLE10=Franz Schubert/Chu Wenig - Ungarische Melodie
TTITLE11=Ruth Etting - My Man
TTITLE12=Stuff Smith - Big Wig In The Wigwam
TTITLE13=Smokey Hogg - Shake A Leg
TTITLE14=Paul Williams - Hoppin' John
TTITLE15=Adelaide Hall/Duke Ellington - Creole Love Call
TTITLE16=Sunset Swing - I Found A New Baby
TTITLE17=The Harlem Hamfats - Weed Smoker's Dream
TTITLE18=Count Basie - Sugar Blues
TTITLE19=Wingy Manone - Black Coffee
TTITLE20=The Mills Brothers - I Can't Give You Anything But Love
TTITLE21=Una Mae Carlisle/Fats Waller - I Can't Give You Anything But Love
TTITLE22=Charlie Christian and Lester Young - Ad Lib Blues
TTITLE23=Ella Fitzgerald - Mr. Paganini
TTITLE24=Bob Crosby - The Big Noise From Winnetka
TTITLE25=Slim Gaillard - Soony Roony (Song Of Yxabat)
TTITLE26=Eddie "Cleanhead" Vinson - King For A Day
EXTD=YEAR: 2002 ID3G: 8
EXTT0=
EXTT1=
EXTT2=
EXTT3=
EXTT4=
EXTT5=
EXTT6=
EXTT7=
EXTT8=
EXTT9=
EXTT10=
EXTT11=
EXTT12=
EXTT13=
EXTT14=
EXTT15=
EXTT16=
EXTT17=
EXTT18=
EXTT19=
EXTT20=
EXTT21=
EXTT22=
EXTT23=
EXTT24=
EXTT25=
EXTT26=
PLAYORDER=
